<svg xmlns="http://www.w3.org/2000/svg" width="256" height="256"><path fill-opacity=".016" d="M0 128.004v128.004l128.25-.254 128.25-.254.254-127.75L257.008 0H0v128.004m.485.496c0 70.4.119 99.053.265 63.672.146-35.38.146-92.98 0-128C.604 29.153.485 58.1.485 128.5" fill="#1976D2" fill-rule="evenodd"/><path fill-opacity=".47" d="M89 124.121C40.325 174.719.353 217.017.173 218.114c-.8 4.886-.788 4.887 43.199 4.868l41.128-.017 44.75-48.518L174 125.929v47.464c0 41.816.187 47.651 1.571 49.036 1.374 1.373 6.35 1.571 39.461 1.571h37.89l2.118-2.25c1.637-1.74 1.988-3.044 1.55-5.75-.313-1.925-.573-43.405-.579-92.179-.01-79.274-.178-88.845-1.582-90.25-1.376-1.375-6.276-1.563-39.25-1.51l-37.679.062L89 124.121M.195 218.5c.02 1.65.244 2.204.498 1.231.254-.973.237-2.323-.037-3-.274-.677-.481.119-.461 1.769" fill="#1976D2" fill-rule="evenodd"/><path fill-opacity=".105" d="M87.663 126.25C40.456 175.338 1.438 216.214.957 217.087c-.569 1.034-.346 2.34.641 3.75C3.109 222.994 3.233 223 43.453 223h40.339l45.354-49.059 45.354-49.06.5 48.81.5 48.809 39.209.262c38.286.255 39.233.214 40.276-1.733 1.194-2.231 1.499-134.808.358-155.413l-.658-11.885-39.093.385c-33.526.329-39.189.598-39.772 1.884-.374.825-.711-3.112-.75-8.75-.038-5.638-.409-10.25-.823-10.25s-39.377 40.162-86.584 89.25" fill="#1976D2" fill-rule="evenodd"/><path fill-opacity=".185" d="M132.219 80.082c-25.68 26.754-41.02 43.463-40.59 44.213.38.663.313.861-.149.441-1.531-1.391-6.351 4.245-5.875 6.869.239 1.317-.025 2.395-.585 2.395-.609 0-.954 2.724-.857 6.75l.163 6.75.719-5.5c.468-3.576.617-.952.426 7.5-.205 9.039-.052 11.477.502 8 .636-3.99.716-3.317.399 3.337-.218 4.585-.056 13.36.362 19.5.694 10.225.812 10.701 1.394 5.663.35-3.025.504.35.343 7.5-.217 9.6-.081 11.562.522 7.5.786-5.304.807-5.227.578 2.155-.185 5.923.054 7.542 1.056 7.158.895-.343 1.157.214.849 1.81-.421 2.189-.294 2.156 2.516-.658 1.628-1.631 20.274-21.64 41.435-44.465l38.475-41.5.049-44.25c.027-24.338-.064-44.233-.201-44.213-.137.02-18.827 19.39-41.531 43.045m-44.814 48.09c-1.048 1.194-1.381 1.867-.74 1.494.64-.373 1.354-.338 1.586.078.232.416.305.248.163-.372-.142-.621.247-1.633.864-2.25s.877-1.122.577-1.122c-.3 0-1.402.977-2.45 2.172M87.31 171.5c.005 3.3.192 4.529.415 2.732.222-1.797.218-4.497-.01-6-.229-1.503-.411-.032-.405 3.268m6.614 38.25L91.5 212.5l2.75-2.424c1.513-1.334 2.75-2.571 2.75-2.75 0-.785-.81-.146-3.076 2.424" fill="#1976D2" fill-rule="evenodd"/></svg>