<svg xmlns="http://www.w3.org/2000/svg" width="256" height="256"><path fill-opacity=".016" d="M0 128.004v128.004l128.25-.254 128.25-.254.254-127.75L257.008 0H0v128.004m.485.496c0 70.4.119 99.053.265 63.672.146-35.38.146-92.98 0-128C.604 29.153.485 58.1.485 128.5" fill="#1976D2" fill-rule="evenodd"/><path fill-opacity=".187" d="M116.982 14.034c-.619 1.156-.999 4.154-.844 6.663l.28 4.561-6.959 1.765c-3.827.97-6.993 1.699-7.035 1.62-.041-.078-.973-2.393-2.069-5.143-1.333-3.342-2.634-5.078-3.924-5.236-2.408-.294-17.431 7.631-18.823 9.929-.736 1.215-.553 3.172.649 6.93 1.656 5.181 1.65 5.254-.541 6.787-1.219.853-3.837 3.014-5.818 4.803l-3.601 3.252-3.573-3.98c-2.355-2.623-4.11-3.774-5.148-3.376-2.707 1.039-14.565 16.712-14.57 19.259-.004 1.302 1.325 3.884 2.951 5.736l2.958 3.368-4.044 7.014c-4.219 7.318-5.218 7.975-8.43 5.546-2.628-1.988-5.183-1.899-6.267.218-2.61 5.092-7.351 21.41-6.827 23.497.354 1.41 2.058 3.053 4.252 4.099 3.647 1.739 3.658 1.763 2.915 6.45-2.223 14.033-1.595 12.67-6.001 13.029-2.193.178-4.556.796-5.25 1.372-1.722 1.429-1.777 24.889-.063 26.603.734.734 4.323 1.2 9.25 1.201l8.05.001-.349-9.561C36.222 97.518 66.915 49.779 109.823 38.965c9.758-2.459 26.518-2.625 35.971-.355 9.66 2.318 23.868 9.428 32.359 16.193 16.44 13.097 29.283 33.222 35.921 56.289 3.23 11.223 5.43 31.027 4.627 41.658l-.547 7.25h8.223c5.062 0 8.684-.461 9.423-1.2 1.714-1.714 1.659-25.174-.063-26.603-.694-.576-3.057-1.194-5.25-1.372l-3.987-.325-1.662-8.5c-.913-4.675-1.363-8.614-1-8.754 2.619-1.005 7.339-4.544 7.855-5.889.812-2.115-5.479-21.273-7.809-23.781-1.744-1.877-1.885-1.879-5.846-.093-2.232 1.006-4.202 1.647-4.377 1.423-.174-.223-1.978-3.474-4.007-7.223l-3.69-6.817 3.018-3.661c1.66-2.013 3.018-4.501 3.018-5.527 0-2.12-12.419-18.241-14.738-19.131-.966-.371-2.8.856-5.049 3.377l-3.532 3.959-5.59-4.66c-3.075-2.563-5.739-4.747-5.92-4.853-.181-.107.461-2.699 1.426-5.759 2.194-6.962 1.739-7.584-9.59-13.108-9.354-4.56-10.587-4.313-12.834 2.568-.796 2.436-1.498 4.496-1.56 4.577-.062.081-3.263-.623-7.113-1.564l-7-1.712-.5-6.436-.5-6.436-10.697-.283c-9.995-.265-10.771-.146-11.821 1.817m1.488 30.955C76.506 50.847 45.052 93.774 44.7 145.664c-.05 7.303.142 13.512.427 13.796.369.369 126.362.789 165.24.551 1.768-.01 1.84-.879 1.345-16.261-.726-22.576-4.102-36.487-12.774-52.637-12.46-23.202-32.188-39.512-54.438-45.004-6.061-1.497-19.265-2.065-26.03-1.12M118.266 110c-.534 1.375-1.243 4.3-1.573 6.5-.548 3.646-.474 3.83.84 2.076 1.644-2.193 2.905-7.83 2.187-9.772-.298-.807-.852-.351-1.454 1.196m135.966 30c0 1.925.206 2.713.457 1.75.252-.963.252-2.537 0-3.5-.251-.963-.457-.175-.457 1.75M76.5 141c-.34.55-.141 1 .441 1S78 141.55 78 141s-.198-1-.441-1-.719.45-1.059 1m176.732 7c0 1.925.206 2.713.457 1.75.252-.963.252-2.537 0-3.5-.251-.963-.457-.175-.457 1.75m-2.961 12.559c-5.309 20.536-16.636 39.937-32.704 56.014-10.811 10.819-20.35 17.789-33.075 24.168-17.702 8.875-31.195 12.245-52.992 13.236l-15 .682 12 .166c19.397.27 37.6-3.596 54.5-11.572 7.589-3.583 20.885-11.777 22.235-13.704.404-.577.741-.681.75-.231.013.72 6.527-4.958 12.46-10.863 9.779-9.73 19.149-23.395 25.342-36.955 4.125-9.03 9.692-26.564 9.048-28.496-.19-.568-1.343 2.832-2.564 7.555M87.495 171.01c-1.534 2.966-1.6 2.987-4.587 1.442-3.949-2.042-8.632-.6-14.103 4.344-6.59 5.952-8.655 12.261-5.055 15.439.963.85 4.13 2.558 7.04 3.795 6.608 2.812 7.707 4.624 5.251 8.662-2.098 3.45-9.843 7.616-13.259 7.132-1.891-.269-2.255-.892-2.127-3.64.085-1.824.872-4.109 1.75-5.079 1.899-2.098 2.108-4.436.345-3.87-1.793.576-7.75 10.783-7.75 13.28 0 1.156.639 2.976 1.42 4.044 3.154 4.312 15.501 1.121 23.452-6.063 3.425-3.094 4.128-4.36 4.128-7.438 0-4.579-2.374-7.007-10.26-10.494-3.157-1.396-5.74-3.115-5.74-3.819 0-2.351 4.739-8.292 8.931-11.197 5.348-3.706 6.599-2.612 4.589 4.012-2.055 6.777-1.933 10.149.414 11.405 2.766 1.48 3.066 1.333 3.066-1.498 0-2.849 4-11.336 7.612-16.15 2.893-3.857 2.971-4.935.454-6.282-2.985-1.597-3.89-1.277-5.571 1.975m34.004 5.74c-2.657 2.613-6.134 6.55-7.728 8.75-1.753 2.42-5.281 5.273-8.931 7.224-4.317 2.307-6.928 4.576-9.178 7.973-3.778 5.703-4.927 3.702-1.608-2.803 2.079-4.075 2.095-4.312.368-5.575-.993-.725-2.092-1.319-2.444-1.319C90.575 191 86 202.592 86 206.147c0 1.074 1.133 2.412 2.612 3.086 2.403 1.095 2.887.89 6.043-2.554 1.887-2.059 3.912-3.447 4.499-3.084.587.363 2.096-.63 3.354-2.207l2.286-2.868-1.564 6.005c-1.363 5.229-1.382 6.381-.147 8.916 2.241 4.603 3.568 4.154 4.23-1.433.72-6.085 5.309-16.735 7.78-18.058.977-.522 2.881-.95 4.232-.95h2.456l-3.39 9.009c-3.756 9.979-4.113 12.5-1.891 13.353 3.01 1.155 4.162-.66 8.658-13.638 2.52-7.273 5.754-16.241 7.186-19.928 2.349-6.048 2.453-6.856 1.059-8.25-2.91-2.91-6.732-1.882-11.904 3.204m14.757 5c-1.662 3.162-4.724 10.427-6.803 16.144-3.664 10.073-3.722 10.434-1.867 11.704 1.053.72 2.697 2.08 3.654 3.021 2.43 2.388 5.949.633 9.501-4.739 1.518-2.294 4.079-5.489 5.693-7.099l2.934-2.927 1.361 2.598c1.279 2.441 1.147 2.799-2.184 5.941-5.597 5.278-4.634 9.607 2.137 9.607 4.973 0 11.702-9.409 8.253-11.54-.697-.431-.471-1.315.655-2.559 2.461-2.72 3.667-2.347 2.95.915-.445 2.028-.027 3.566 1.494 5.5 2.558 3.253 5.13 3.393 9.312.508 1.735-1.197 2.82-1.801 2.413-1.342-.942 1.059 1.049 3.518 2.848 3.518.749 0 3.209-2.925 5.467-6.5 4.396-6.961 5.459-8.033 3.901-3.935-1.767 4.649-1.212 7.394 1.72 8.509 3.458 1.315 6.646-.902 10.72-7.455 2.362-3.798 2.671-4.919 1.625-5.904-.902-.85-1.412-.885-1.697-.118-.79 2.128-6.528 9.403-7.415 9.403-.495 0 .034-2.496 1.175-5.546 1.142-3.051 1.824-6.201 1.518-7-.816-2.125-4.65-1.775-7.243.66-2.214 2.081-2.242 2.082-1.72.086.362-1.383-.127-2.381-1.534-3.133-1.844-.987-2.296-.649-4.238 3.164-2.89 5.675-6.444 10.249-9.535 12.274-3.054 2.001-3.66 1.576-2.776-1.947.412-1.643 1.179-2.483 1.985-2.174 1.976.759 6.489-3.258 8.164-7.265 1.435-3.435 1.398-3.617-1.177-5.832-1.462-1.258-3.049-2.287-3.526-2.287-1.468 0-6.881 4.983-7.487 6.892-.315.993-1.689 2.313-3.053 2.935-3.55 1.617-3.305-.818.519-5.174 3.435-3.913 3.634-4.882 1.382-6.751-1.394-1.157-1.914-.981-3.75 1.266-1.711 2.095-2.758 2.513-5.305 2.119-2.843-.44-3.442-.065-5.762 3.611-2.642 4.184-4.565 5.285-4.565 2.614 0-.958-1.398-1.712-3.924-2.116-4.501-.72-4.489-1.287.177-8.339 2.772-4.189 2.838-4.518 1.152-5.75-2.981-2.18-4.001-1.546-7.149 4.443m-13.129.728c-2.27 2.462-4.127 4.615-4.127 4.783 0 .168 1.193.253 2.65.189 2.187-.096 2.971-.932 4.483-4.783 1.009-2.567 1.673-4.667 1.478-4.667-.196 0-2.214 2.015-4.484 4.478m-30.28 2.958c-1.26 2.766-.553 5.564 1.406 5.564 1.65 0 5.078-5.655 4.246-7.002-1.161-1.877-4.532-1.019-5.652 1.438m63.123 9.156c-1.41 4.27-.094 6.585 2.513 4.422 1.416-1.175 1.418-1.466.018-3.013-.852-.941-1.265-2.452-.918-3.356.347-.905.393-1.645.102-1.645-.292 0-1.063 1.616-1.715 3.592m16.173.551c-.705 1.128-1.062 2.271-.793 2.54.268.269 1.011-.489 1.65-1.683s.996-2.337.793-2.54c-.203-.203-.945.554-1.65 1.683m-33.836 2.107c-2.893 3.187-5.668 7.723-5.083 8.308.775.774 7.776-7.384 7.776-9.061 0-1.982-.284-1.902-2.693.753m13.348 11.579c-1.823 2.014-2.225 3.641-.66 2.674 1.043-.644 3.352-4.503 2.695-4.503-.209 0-1.125.823-2.035 1.829m-47.905 43.833c.688.278 1.813.278 2.5 0 .688-.277.125-.504-1.25-.504s-1.937.227-1.25.504m6 1c.688.278 1.813.278 2.5 0 .688-.277.125-.504-1.25-.504s-1.937.227-1.25.504" fill="#1976D2" fill-rule="evenodd"/><path fill-opacity=".632" d="M119.25 14.662c-.809.327-1.254 2.682-1.261 6.671l-.01 6.167-8.48 2.037-8.48 2.036-1.632-5.036c-.898-2.77-1.971-5.408-2.384-5.861-.802-.88-16.404 6.546-17.509 8.334-.361.585.135 3.581 1.103 6.659l1.76 5.596-2.929 2.108c-1.61 1.159-4.841 3.857-7.179 5.995l-4.25 3.888-3.994-4.378L60.01 44.5l-2.534 3c-1.395 1.65-4.388 5.377-6.652 8.282-4.497 5.77-4.477 6.45.368 12.483 2.218 2.761 2.218 2.771.291 6-1.062 1.779-3.296 5.775-4.965 8.881l-3.035 5.645-3.834-1.967c-2.109-1.082-4.42-1.742-5.135-1.468-1.616.62-7.904 19.187-7.157 21.133.3.781 2.391 2.362 4.647 3.513 3.467 1.769 3.992 2.433 3.396 4.295-.387 1.212-1.218 5.803-1.847 10.203l-1.143 8-4.955.5-4.955.5v24l6.605.292 6.605.293.559-15.293c.308-8.41 1.282-18.667 2.166-22.792C46.159 83.938 66.699 55.356 94.5 41.98c12.522-6.024 18.943-7.398 34.5-7.383 12.578.012 14.149.234 23 3.25 13.148 4.48 23.702 11.032 34.069 21.153 22.147 21.619 34.265 51.851 34.384 85.786l.047 13.286 7-.286 7-.286v-24l-5.074-.296-5.074-.296-1.15-8.204c-.632-4.512-1.437-9.209-1.788-10.436-.513-1.794-.012-2.58 2.549-4 6.836-3.792 6.645-2.926 3.049-13.855-1.793-5.452-3.655-10.34-4.136-10.863-.543-.589-2.553-.134-5.3 1.201l-4.425 2.15-3.212-6.201c-1.766-3.41-3.825-7.088-4.575-8.173-1.985-2.87-1.642-4.607 1.677-8.489 1.627-1.904 2.959-3.857 2.959-4.34 0-1.479-12.425-16.694-13.635-16.696-.624-.001-1.846 1.011-2.716 2.248-4.561 6.492-3.76 6.506-11.939-.207l-7.452-6.117 2.028-5.506c1.191-3.232 1.654-5.842 1.121-6.321-2.241-2.013-16.599-9.098-17.416-8.594-.501.31-1.687 3.027-2.636 6.038-1.513 4.8-1.98 5.388-3.79 4.774-1.136-.385-4.986-1.431-8.556-2.325l-6.492-1.625.155-5.434c.084-2.988-.312-5.995-.882-6.683-1.022-1.235-15.778-1.702-18.54-.588m-8.02 34.353C81.977 56.68 58.539 83.117 49.627 118.5c-2.263 8.985-3.882 26.178-3.131 33.25l.663 6.25h163.08l-.492-15.75c-.611-19.587-3.278-30.732-11.185-46.75-11.991-24.292-30.947-40.844-53.336-46.57-9.901-2.532-24.143-2.497-33.996.085M100.89 92.25c-4.466 8.938-12.183 24.085-17.148 33.662-6.539 12.612-8.505 17.2-7.134 16.645 7.577-3.067 16.159-4.777 26.423-5.265 10.775-.513 11.951-.379 17.951 2.045 3.532 1.426 6.564 2.45 6.739 2.275.176-.175.197-10.161.049-22.191l-.27-21.873-2.584 4.976c-1.769 3.407-3.118 4.881-4.277 4.676-1.109-.197-2.189.84-3.127 3-.789 1.815-1.451 2.613-1.473 1.773-.021-.841.547-2.416 1.264-3.5.717-1.085 1.905-4.448 2.641-7.473.736-3.025 2.41-7.943 3.721-10.928 1.31-2.986 2.249-5.829 2.086-6.318C125.516 83.047 110.6 76 109.339 76c-.18 0-3.982 7.313-8.449 16.25m39.202-13.257c-6.27 2.731-6.459 2.926-8.75 9.021-2.217 5.896-2.342 7.508-2.342 30.108 0 13.133.14 23.878.312 23.878s2.309-.98 4.75-2.177c8.417-4.129 27.702-3.549 41.662 1.254 2.902.998 5.276 1.55 5.276 1.226 0-1.141-33.424-66.302-33.958-66.202-.298.055-3.426 1.356-6.95 2.892m-19.517 33.456c-.365 1.949-1.777 4.782-3.138 6.297l-2.473 2.754.561-3 .561-3-1.381 3c-1.182 2.568-1.178 3.049.031 3.338 2.275.543 4.937-2.597 6.286-7.417.69-2.463 1.021-4.711.736-4.996-.285-.285-.817 1.076-1.183 3.024m-32.889 59.063c-2.084 3.067-2.57 3.333-3.667 2.011-3.913-4.716-16.387 1.412-20.495 10.068-2.692 5.673-1.473 8.067 5.759 11.312 7.725 3.466 9.411 5.278 7.932 8.524-2.059 4.519-12.217 10.277-15.743 8.924-2.145-.823-1.814-6.062.596-9.447 2.232-3.133 1.229-4.029-1.292-1.154-4.274 4.874-6.094 12.532-3.576 15.05 3.653 3.653 19.286-1.638 24.314-8.229 4.796-6.289 3.081-10.239-6.553-15.091-5.415-2.727-6.961-3.989-6.961-5.686C68 184.963 78.195 175 81.092 175c2.376 0 2.357 1.365-.14 10.173-1.093 3.851-1.095 4.949-.016 6.25 1.931 2.327 3.599 1.92 3.836-.936.265-3.21 4.347-11.287 7.744-15.324 2.745-3.262 2.641-4.473-.528-6.169-1.59-.852-2.292-.441-4.302 2.518m34.766 4.639c-2.477 2.283-6.084 6.304-8.016 8.936-3.207 4.369-10.968 9.913-13.878 9.913-.654 0-2.169 1.742-3.365 3.87-2.364 4.206-4.903 6.753-5.82 5.837-.318-.319.577-3.103 1.99-6.188 2.134-4.663 2.32-5.703 1.102-6.171-2.852-1.094-4.376.623-6.418 7.235-2.277 7.371-1.719 9.417 2.566 9.417 1.607 0 3.095-1.122 4.628-3.488 2.358-3.639 3.237-4.166 4.241-2.542.329.534 1.931-.479 3.559-2.25L106 197.5l-1.5 3.718c-2.191 5.431-1.959 12.056.5 14.282 1.969 1.782 2 1.747 2-2.307 0-4.991 3.381-14.411 6.34-17.668 2.233-2.457 8.66-4.464 8.66-2.705 0 .539-1.602 5.128-3.561 10.2-3.747 9.702-3.82 12.328-.329 11.8 1.74-.263 2.979-2.728 6.946-13.82 2.655-7.425 5.849-16.264 7.098-19.642 1.917-5.187 2.062-6.393.935-7.75-2.266-2.731-5.844-1.875-10.637 2.543m15.793 2.6c-2.184 3.177-5.553 10.948-8.78 20.249-1.24 3.575-2.56 7.247-2.932 8.16-.484 1.186-.015 1.869 1.645 2.393 1.277.404 2.899 1.553 3.604 2.555 1.714 2.435 4.857.987 8.218-3.786 1.375-1.952 3.919-5.177 5.654-7.165l3.154-3.615 2.001 2.47 2.001 2.471-3.905 4.236c-2.148 2.33-3.905 4.931-3.905 5.78 0 2.558 4.415 3.986 7.883 2.55 4.874-2.019 6.46-4.452 5.853-8.978-.455-3.392-.187-4.201 1.83-5.523 1.3-.851 2.495-1.548 2.656-1.548.161 0 .138 1.938-.05 4.307-.358 4.5.518 5.894 4.464 7.102 1.502.459 3.061-.125 5.25-1.967 2.989-2.514 3.114-2.536 3.114-.531 0 1.149.45 2.156 1 2.239.55.083 1.422.195 1.939.25.516.055 2.789-2.764 5.052-6.264 2.262-3.501 4.29-6.188 4.506-5.972.216.215-.007 2.164-.496 4.33-2.299 10.196 7.881 7.734 13.413-3.244 2.103-4.175-.177-4.611-2.611-.5-2.069 3.493-6.803 7.971-6.803 6.435 0-.64.888-3.5 1.973-6.355 1.457-3.836 1.686-5.536.877-6.511-1.718-2.069-3.753-1.57-7.053 1.73-1.829 1.829-2.754 2.329-2.312 1.25 1.345-3.282 1.059-4.799-.904-4.799-1.256 0-2.741 1.555-4.296 4.5-2.717 5.145-9.032 12-11.054 12-.897 0-1.256-.939-1.047-2.745.249-2.161.947-2.854 3.278-3.254 1.933-.331 3.774-1.711 5.296-3.97 3.074-4.561 2.642-8.179-1.134-9.5-2.637-.922-3.176-.67-6.5 3.038-4.113 4.589-12.552 10.669-13.497 9.725-1.152-1.152-.645-5.888.841-7.853 1.409-1.862 1.47-1.832 1.5.75.043 3.582 1.81 4.523 2.936 1.563.494-1.302 2.065-3.752 3.489-5.445 2.344-2.785 2.438-3.205.984-4.411-1.376-1.142-1.919-.969-3.795 1.212-1.802 2.095-2.58 2.37-4.401 1.558-1.779-.794-2.698-.531-4.697 1.347-1.366 1.283-2.484 2.914-2.484 3.624s-.9 1.772-2 2.361c-1.603.858-2 .76-2-.49 0-1.913-4.562-3.784-7.193-2.949-1.786.567-1.746.251.554-4.287 1.366-2.695 3.188-5.485 4.05-6.2 1.757-1.458 1.368-2.587-1.399-4.068-1.526-.816-2.231-.489-3.767 1.745m-11.923-.055c-.648.233-2.816 2.421-4.817 4.863L117.866 188h3.123c2.749 0 3.367-.55 5.151-4.583 2.114-4.78 2.139-5.422.182-4.721m-33.143 7.219c-1.716 4.925 1.828 5.907 4.271 1.182 1.344-2.599 1.338-2.964-.057-3.5-2.618-1.004-3.159-.706-4.214 2.318m78.862 9.027c-1.197 1.682-1.707 3.058-1.132 3.058 1.259 0 4.582-4.842 3.836-5.589-.29-.289-1.507.85-2.704 2.531m-34.839 2.808c-2.667 3.794-5.438 9.347-4.922 9.863.878.878 8.72-8.647 8.72-10.591 0-2.813-1.512-2.523-3.798.728m13.972 11.404c-1.279 1.565-1.912 2.846-1.405 2.846 1.329 0 4.501-3.719 4.084-4.789-.194-.497-1.4.377-2.679 1.943" fill="#1976D2" fill-rule="evenodd"/><path fill-opacity=".973" d="M140.175 55.516c-.688 1.508-1.044 2.948-.793 3.199.678.679 2.804-3.656 2.395-4.884-.194-.582-.915.176-1.602 1.685m-4.716 8.551c-.363.586-.445 1.281-.183 1.543s.743-.218 1.069-1.067c.676-1.762.1-2.072-.886-.476m-3 6c-.363.586-.445 1.281-.183 1.543s.743-.218 1.069-1.067c.676-1.762.1-2.072-.886-.476M113 77c.825.533 1.95.969 2.5.969s.325-.436-.5-.969c-.825-.533-1.95-.969-2.5-.969s-.325.436.5.969m5 2c.825.533 1.95.969 2.5.969s.325-.436-.5-.969c-.825-.533-1.95-.969-2.5-.969s-.325.436.5.969m19 0c-.825.533-1.05.969-.5.969s1.675-.436 2.5-.969c.825-.533 1.05-.969.5-.969s-1.675.436-2.5.969m-31.541 1.067c-.363.586-.445 1.281-.183 1.543s.743-.218 1.069-1.067c.676-1.762.1-2.072-.886-.476M133.5 80c-.34.55-.141 1 .441 1S135 80.55 135 80s-.198-1-.441-1-.719.45-1.059 1m-32.356 8.75c-1.091 2.55-1.066 2.609.34.809.834-1.068 1.516-2.305 1.516-2.75 0-1.52-.678-.81-1.856 1.941m-5.58 10.957c-.542 1.425-.428 1.54.56.56.684-.679.991-1.486.683-1.793-.308-.308-.867.247-1.243 1.233m69 8.586c.376.986.935 1.541 1.243 1.233.308-.307.001-1.114-.683-1.793-.988-.98-1.102-.865-.56.56m3.436 6.349c0 .537.7 1.849 1.555 2.917 1.467 1.83 1.487 1.798.365-.559-1.458-3.061-1.92-3.628-1.92-2.358m6 12.299c0 .518.445 1.216.989 1.552.566.35.734-.051.393-.941-.665-1.732-1.382-2.049-1.382-.611m-98.541 12.126c-.363.586-.445 1.281-.183 1.543s.743-.218 1.069-1.067c.676-1.762.1-2.072-.886-.476m.541 4.992c0 .582.45.781 1 .441s1-.816 1-1.059-.45-.441-1-.441-1 .477-1 1.059m26.25.669c2.063.216 5.438.216 7.5 0 2.063-.215.375-.392-3.75-.392s-5.812.177-3.75.392m45 0c2.063.216 5.438.216 7.5 0 2.063-.215.375-.392-3.75-.392s-5.812.177-3.75.392m-53.437.955c.721.289 1.584.253 1.916-.079.332-.332-.258-.568-1.312-.525-1.165.048-1.402.285-.604.604m22 0c.721.289 1.584.253 1.916-.079.332-.332-.258-.568-1.312-.525-1.165.048-1.402.285-.604.604m24 0c.721.289 1.584.253 1.916-.079.332-.332-.258-.568-1.312-.525-1.165.048-1.402.285-.604.604m-7.063 1.889c-3.877 2.103-3.438 2.829.5.827 3.77-1.918 4.437-2.414 3.167-2.359-.505.022-2.155.711-3.667 1.532m34.063-.889c.721.289 1.584.253 1.916-.079.332-.332-.258-.568-1.312-.525-1.165.048-1.402.285-.604.604m-82 1c.721.289 1.584.253 1.916-.079.332-.332-.258-.568-1.312-.525-1.165.048-1.402.285-.604.604m39.961 1.211c3.639 2.341 4.226 2.51 4.226 1.223 0-.486-.787-1.11-1.75-1.387a73.337 73.337 0 0 1-3.75-1.223c-1.1-.396-.527.228 1.274 1.387M79 149c-1.828 1.181-.249 1.181 2.5 0 1.319-.567 1.489-.878.5-.914-.825-.031-2.175.381-3 .914m-5 1c0 .55.477 1 1.059 1s.781-.45.441-1-.816-1-1.059-1-.441.45-.441 1m106.813.683c.721.289 1.584.253 1.916-.079.332-.332-.258-.568-1.312-.525-1.165.048-1.402.285-.604.604M88.978 169.75c-.012.412-.863 1.844-1.891 3.181-1.75 2.277-1.975 2.324-3.549.75-.925-.925-2.563-1.681-3.642-1.681-8.142 0-19.836 12.506-16.872 18.044.588 1.099 4.086 3.452 7.773 5.227 7.331 3.532 8.577 5.703 5.748 10.02-2.007 3.063-10.895 7.945-13.703 7.527-3.88-.577-4.609-3.376-2.087-8.004 2.983-5.471 2.247-5.927-1.187-.737-7.879 11.906-1.777 17.568 11.941 11.079 7.676-3.632 12.915-9.324 11.991-13.029-.943-3.777-2.698-5.376-9.435-8.596-3.287-1.571-6.234-3.529-6.549-4.351-.899-2.342 4.117-8.992 9.229-12.233 2.556-1.621 4.96-2.947 5.344-2.947 1.692 0 1.64 3.289-.146 9.162-1.06 3.486-1.931 6.418-1.935 6.517-.005.098.727.913 1.625 1.811 1.51 1.511 1.755 1.271 3.266-3.192 1.445-4.267 4.616-10.171 8.367-15.576 1.004-1.447.954-1.957-.266-2.735-1.801-1.148-3.991-1.277-4.022-.237m35.539 5.237c-2.068 1.643-6.008 5.805-8.757 9.25-3.486 4.368-6.735 7.171-10.74 9.263-4.085 2.134-6.65 4.371-8.889 7.75-4.986 7.527-7.017 5.504-3.113-3.101 2.029-4.471 1.891-6.149-.505-6.149-1.526 0-5.513 9.741-5.513 13.47 0 1.594.741 2.63 2.214 3.098 1.764.56 2.868-.055 5.439-3.029 1.927-2.229 3.698-3.44 4.397-3.008.69.426 2.117-.46 3.471-2.154 3.032-3.794 3.862-2.713 1.99 2.593-1.769 5.014-1.915 8.407-.476 11.096 1.342 2.508 2.927 2.503 2.27-.007-.599-2.292 2.871-13.199 5.65-17.755 1.376-2.255 2.975-3.388 5.432-3.849 1.916-.359 3.919-.384 4.453-.054.568.351-.454 4.221-2.469 9.349-3.676 9.353-3.966 12.75-1.09 12.75 1.381 0 2.65-2.585 5.648-11.5 2.126-6.325 5.262-14.999 6.969-19.276 1.706-4.277 3.102-7.957 3.102-8.179 0-.945-3.251-3.545-4.434-3.545-.71 0-2.982 1.344-5.049 2.987m-1.88 6.97c-2.55 2.727-4.637 5.336-4.637 5.799 0 .463 1.544.662 3.432.442 3.511-.41 3.466-.349 7.285-9.948 1.067-2.683-1.656-1.023-6.08 3.707m13.508 1.293c-4.143 8.754-9.317 23.859-8.713 25.433 1.006 2.621 3.108 1.213 4.978-3.334 2.172-5.281 7.324-11.631 8.731-10.762 1.62 1.001-.231 4.733-4.769 9.62-4.852 5.224-5.838 9.144-2.167 8.613 1.229-.178 3.669-2.314 5.509-4.82 4.944-6.737 7.93-10 9.148-10 .6 0 1.865 1.179 2.809 2.621 1.681 2.564 1.659 2.663-1.005 4.604-3.414 2.487-5.802 6.937-4.688 8.739 1.433 2.32 7.011 1.42 10.232-1.651 2.54-2.421 2.87-3.326 2.37-6.494-.519-3.286-.247-3.92 2.532-5.899l3.114-2.217-.711 4.211c-1.284 7.598 4.368 10.58 10.413 5.493l3.081-2.593-.254 2.302c-.518 4.682 2.717 3.042 7.075-3.587 2.361-3.591 4.637-6.529 5.058-6.529.421 0 .299 2.278-.271 5.061-1.13 5.515-.153 7.216 3.847 6.695 2.193-.286 9.554-9.418 9.475-11.756-.031-.937-.874-.407-2.245 1.411-7.333 9.728-9.356 9.908-6.075.542 1.142-3.259 1.845-6.156 1.562-6.439-1.462-1.461-5.021-.107-8.503 3.236l-3.906 3.75 1.686-3.34c1.71-3.387 1.495-6.16-.478-6.16-.595 0-1.697 1.463-2.448 3.25-3.318 7.894-12.554 16.934-13.767 13.475-.869-2.479.814-6.235 2.649-5.909 2.314.411 5.507-2.477 7.224-6.534 1.892-4.469 1.779-4.867-1.806-6.352-3.095-1.282-3.252-1.214-6.834 2.945-3.267 3.793-11.462 10.109-13.131 10.121-1.259.008-1.693-4.196-.721-6.984 1.396-4.005 3.977-4.878 3.219-1.089-.319 1.597-.086 3.131.534 3.515.606.374 1.101.074 1.101-.667 0-.74 1.332-2.905 2.959-4.809 1.628-1.904 2.978-3.998 3-4.653.083-2.417-2.279-2.536-4.041-.203-1.335 1.769-2.774 2.394-5.51 2.394-3.171 0-3.934.462-5.306 3.216-2.061 4.136-4.004 4.869-5.865 2.211-1.136-1.621-2.274-2.025-4.86-1.723-4.268.498-4.255-.363.115-7.621 3.618-6.008 3.722-7.583.5-7.583-1.336 0-2.756 1.831-4.847 6.25m-42.11 1.684c-1.436 2.684-1.293 5.066.304 5.066 1.551 0 3.962-4.704 3.115-6.075-.917-1.484-2.304-1.075-3.419 1.009m77.932 9.619c-1.207 1.954-1.964 3.783-1.682 4.066.865.864 4.715-3.879 4.715-5.808 0-2.591-.55-2.275-3.033 1.742m-20.894 14.082c-2.421 3.077-2.666 4.53-.633 3.75 1.34-.515 4.56-4.645 4.56-5.85 0-1.378-2.056-.279-3.927 2.1" fill="#1976D2" fill-rule="evenodd"/></svg>