<?xml version="1.0" encoding="utf-8"?>
<!-- Generator: Adobe Illustrator 16.0.0, SVG Export Plug-In . SVG Version: 6.00 Build 0)  -->
<!DOCTYPE svg PUBLIC "-//W3C//DTD SVG 1.1//EN" "http://www.w3.org/Graphics/SVG/1.1/DTD/svg11.dtd">
<svg version="1.1" id="Layer_1" xmlns="http://www.w3.org/2000/svg" xmlns:xlink="http://www.w3.org/1999/xlink" x="0px" y="0px"
	 width="612px" height="318px" viewBox="0 160.5 612 318" enable-background="new 0 160.5 612 318" xml:space="preserve">
<g id="Layer_2">
	<g id="Layer_1-2">
		<g id="_404_text">
			<g id="text_404">
				
					<image overflow="visible" enable-background="new    " width="438" height="198" xlink:href="B392D9CC.png"  transform="matrix(1.3973 0 0 1.3973 0 186.0107)">
				</image>
				<path id="_Compound_Clipping_Path_" fill="#FFFFFF" d="M111.445,441.041V401.19H8.942v-38.495L68.62,199.413h55.639
					L59.467,357.205h51.978V289.41h50.525v67.725h23.069v44.056H161.97v39.905L111.445,441.041z"/>
				<path id="_Compound_Clipping_Path_2" fill="#FFFFFF" d="M231.708,225.038c15.743-20.009,39.109-30.013,70.101-30.013
					c30.992,0,54.358,10.004,70.101,30.013c15.742,20.018,23.613,52.155,23.613,96.411c0,44.256-7.812,76.002-23.433,95.236
					c-15.622,19.161-39.049,28.741-70.283,28.741c-31.233,0-54.661-9.58-70.282-28.741c-15.621-19.151-23.432-50.865-23.432-95.14
					S215.965,245.103,231.708,225.038z M343.488,320.401c0-30.134-3.172-51.247-9.516-63.338s-17.02-18.146-32.026-18.165
					c-14.997,0.038-25.719,6.162-32.165,18.374c-6.446,12.212-9.679,33.325-9.697,63.338c0,30.022,3.293,51.009,9.879,62.96
					c6.585,11.951,17.326,17.932,32.221,17.94c14.904,0,25.519-5.98,31.844-17.94c6.323-11.96,9.496-33.013,9.515-63.156
					L343.488,320.401z"/>
				<path id="_Compound_Clipping_Path_3" fill="#FFFFFF" d="M521.458,441.041V401.19H418.954v-38.495l59.678-163.284h55.64
					L469.48,357.204h51.979V289.41h50.524v67.725h23.067v44.056h-23.067v39.905L521.458,441.041z"/>
			</g>
		</g>
	</g>
</g>
</svg>
