<svg xmlns="http://www.w3.org/2000/svg" width="256" height="256"><path fill-opacity=".016" d="M0 128.004v128.004l128.25-.254 128.25-.254.254-127.75L257.008 0H0v128.004m.485.496c0 70.4.119 99.053.265 63.672.146-35.38.146-92.98 0-128C.604 29.153.485 58.1.485 128.5" fill="#1976D2" fill-rule="evenodd"/><path fill-opacity=".183" d="M116.501 40.25c-.24.688-.564 3.258-.719 5.711-.274 4.34-.401 4.496-4.672 5.727-2.415.697-5.154 1.508-6.087 1.805-1.291.409-1.977-.395-2.865-3.359-1.976-6.596-2.948-6.765-12.196-2.115l-8.206 4.126.581 4.177c.319 2.298.711 4.902.871 5.787.169.928-1.768 3.322-4.573 5.654l-4.865 4.044-2.942-3.35c-1.692-1.927-3.539-3.121-4.347-2.811C64.074 66.569 54 79.78 54 82.013c0 1.166 1.071 3.553 2.38 5.304l2.379 3.183-3.46 6.234-3.461 6.234-2.986-1.545c-4.989-2.58-5.91-1.711-9.483 8.949-3.482 10.389-3.388 12.853.54 14.099 3.47 1.101 3.887 2.673 2.659 10.029-1.165 6.985-1.176 7.001-4.614 7.332-5.533.532-5.954 1.396-5.954 12.209 0 5.387.273 10.507.607 11.377.476 1.242 2.17 1.582 7.881 1.582h7.273l.509-15.75c.415-12.854.988-17.461 3.115-25.056 14.688-52.445 61.477-79.115 103.354-58.913 21.642 10.441 38.674 32.868 45.955 60.513 2.142 8.135 2.576 12.099 2.681 24.488l.125 14.782 7.5-.282 7.5-.282v-24l-3.963-.5c-3.949-.498-3.968-.522-5.207-6.5-1.778-8.582-1.703-8.952 2.17-10.799 4.35-2.074 4.418-3.558.681-14.681-3.288-9.787-4.819-11.256-9.096-8.729l-2.964 1.751-3.648-6.523-3.647-6.523 2.587-3.075c1.423-1.691 2.587-3.866 2.587-4.834 0-1.747-8.697-13.436-11.788-15.844-1.362-1.061-2.167-.723-5.163 2.165l-3.549 3.423-4.877-4.332c-4.722-4.193-4.841-4.434-3.75-7.564 2.325-6.67 1.808-7.57-6.851-11.924-4.388-2.206-8.447-4.011-9.021-4.011-.574 0-1.484 1.125-2.022 2.5a1709.49 1709.49 0 00-1.889 4.849c-.909 2.347-.918 2.348-7 .862L136 50.723v-5.254c0-6.313-.267-6.469-11.113-6.469-5.46 0-8.086.391-8.386 1.25m-3.429 28.303c-31.307 6.789-55.015 37.31-59.104 76.087-.571 5.423-.746 12.673-.387 16.11l.652 6.25H198v-11.39c0-28.843-9.741-52.898-28.524-70.439-16.02-14.961-36.382-20.96-56.404-16.618m4.653 54.083c-1.101 1.782-2.552 9.375-1.69 8.842 1.153-.712 3.207-7.252 2.729-8.687-.262-.784-.617-.837-1.039-.155m-27.351 53.915c-1.169 1.784-1.988 2.235-2.723 1.5-1.381-1.381-6.215-1.342-8.967.071-3.287 1.689-7.677 6.023-9.355 9.236-2.488 4.766-1.093 7.136 6.238 10.6 5.38 2.542 6.507 3.484 6.249 5.22-.442 2.965-6.757 7.776-11.143 8.488-3.375.547-3.67.403-3.638-1.785.02-1.31.679-3.506 1.465-4.881 1.699-2.971 1.838-4 .542-4-1.668 0-6.042 8.545-6.042 11.803 0 7.725 11.998 6.248 21.25-2.616 6.048-5.794 4.438-10.666-4.888-14.79-3.368-1.49-5.362-2.987-5.362-4.027 0-1.936 9.117-11.37 10.988-11.37.934 0 1.08 1 .549 3.75-.399 2.063-.959 4.992-1.246 6.509-.483 2.557 1 5.741 2.673 5.741.396 0 1.292-1.912 1.992-4.25.699-2.338 2.844-6.62 4.766-9.517 2.86-4.309 3.271-5.536 2.264-6.75-1.809-2.179-3.722-1.815-5.612 1.068m27.247 7.468c-3.641 3.86-6.621 7.404-6.621 7.876 0 .472-2.381 1.909-5.292 3.193-3.976 1.755-5.975 3.433-8.04 6.75-3.49 5.607-4.48 4.787-1.729-1.432 2.104-4.756 1.724-6.345-1.528-6.391-2.463-.034-6.166 12.37-4.348 14.561 1.879 2.264 4.7 1.664 7.035-1.495 1.268-1.715 2.745-2.695 3.578-2.375.781.3 2.11-.299 2.954-1.331 1.487-1.818 1.513-1.814.882.125-1.439 4.414-1.608 7.129-.61 9.75 1.571 4.12 3.645 3.464 3.831-1.213.087-2.179 1.42-6.553 2.963-9.719 2.199-4.515 3.44-5.918 5.754-6.504 1.622-.411 3.082-.616 3.243-.454.162.161-1.074 4.042-2.746 8.624-3.241 8.88-3.212 11.349.128 10.836 1.678-.257 2.828-2.468 5.893-11.32 2.094-6.05 4.854-13.763 6.133-17.141 1.966-5.192 2.119-6.389.99-7.75-2.624-3.161-5.605-1.867-12.47 5.41m16.143-.769c-1.88 2.884-8.681 20.083-9.437 23.864-.353 1.764-.155 2.886.509 2.886.597 0 1.961.939 3.03 2.086 2.593 2.783 4.877 1.529 10.103-5.544 4.941-6.688 5.645-7.132 7.073-4.463.983 1.836.71 2.582-1.95 5.326-3.699 3.816-3.93 6.256-.731 7.714 1.826.832 3.067.711 5.471-.532 3.858-1.995 5.48-4.886 4.712-8.396-.442-2.018-.09-3.001 1.407-3.933 1.862-1.158 1.955-1.039 1.392 1.777-1.081 5.403 5.382 9.411 8.709 5.402 1.177-1.418 1.379-1.418 2.173 0 1.549 2.768 4.204 1.672 7.117-2.939 3.232-5.116 4.105-5.614 3.402-1.942-.589 3.084 1.666 5.674 4.569 5.247 2.678-.393 9.102-9.279 8.272-11.442-.485-1.263-1.253-.739-3.536 2.413-4.296 5.93-5.344 6.023-3.162.282 1.709-4.499 1.762-5.264.452-6.574-1.938-1.938-2.278-1.888-5.08.744-1.698 1.596-2.191 1.759-1.737.577.413-1.076-.079-2.031-1.414-2.745-1.815-.971-2.28-.642-4.084 2.895-2.577 5.052-7.802 11.047-9.628 11.047-2.76 0-.981-3.563 2.069-4.141 2.507-.476 6.71-6.652 6.327-9.299-.169-1.168-1.479-2.435-3.104-3.005-2.587-.906-3.16-.607-7.142 3.73-6.078 6.619-7.728 6.21-3.007-.747 2.018-2.974 2.295-4.034 1.349-5.172-1.016-1.225-1.506-1.134-3.383.629-1.358 1.276-2.844 1.812-3.9 1.407-1.889-.725-6.605 3.04-6.605 5.272 0 1.817-2.65 1.679-3.362-.174-.337-.88-1.837-1.5-3.627-1.5h-3.052l2.031-3.75c1.117-2.062 2.589-4.55 3.27-5.528 1.011-1.45.963-1.956-.26-2.735-2.337-1.49-3.648-1.174-5.236 1.263m-12.631 3.251c-3.685 4.197-3.762 4.499-1.146 4.499 1.341 0 2.482-1.187 3.513-3.654.839-2.009 1.355-3.824 1.146-4.033-.209-.209-1.79 1.226-3.513 3.188m-24.937.808c-2.011 2.518-2.298 5.438-.599 6.09 1.836.705 4.32-1.876 4.371-4.542.04-2.077-2.513-3.125-3.772-1.548m53.243 10.079c-.794 3.162.691 5.418 2.24 3.404.674-.874.584-2.079-.276-3.727l-1.272-2.435-.692 2.758m13.661.907c-1.265 2.107-1.243 2.128.479.479.991-.95 1.587-1.942 1.324-2.205-.263-.263-1.074.514-1.803 1.726m-28.812.959c-1.13 1.235-2.836 3.821-3.792 5.746l-1.738 3.5 3.221-3c2.956-2.752 5.58-7.275 4.72-8.135-.197-.196-1.282.654-2.411 1.889m11.117 10.996l-1.905 2.25 2.25-1.905c1.238-1.048 2.25-2.06 2.25-2.25 0-.8-.805-.209-2.595 1.905" fill="#1976D2" fill-rule="evenodd"/><path fill-opacity=".634" d="M117.704 41.63c-.387.387-.704 3.041-.704 5.899v5.195l-5.25 1.109c-2.888.611-6.214 1.388-7.393 1.727-1.809.521-2.337.018-3.38-3.221-2.148-6.662-2.515-6.764-9.859-2.717-3.64 2.005-6.96 3.95-7.378 4.321-.417.372-.093 2.89.722 5.595.814 2.706 1.156 5.176.759 5.488-.397.313-3.225 2.648-6.286 5.19l-5.564 4.622-2.728-3.419C69.142 69.539 67.503 68 67 68c-.502 0-3.452 3.142-6.555 6.982l-5.641 6.982 3.107 3.924 3.108 3.924-4.096 7.594c-2.253 4.177-4.62 7.58-5.26 7.562-.64-.017-2.037-.692-3.104-1.5-1.068-.807-2.49-1.468-3.161-1.468-.671 0-2.603 4.125-4.293 9.166-3.337 9.95-3.22 10.715 1.98 12.869 1.72.713 2.811 1.793 2.536 2.51-.265.692-1.016 4.903-1.667 9.357L42.77 144H34v21H45.693l.605-13.75c1.461-33.219 14.891-61.213 37.619-78.419 12.912-9.775 25.633-14.129 41.583-14.232 11.82-.076 18.174 1.319 29 6.367 30.561 14.25 50.48 48.827 50.881 88.32l.119 11.786 6-.286 6-.286v-20l-4.25-.307c-2.338-.17-4.25-.448-4.25-.62 0-.171-.688-4.257-1.529-9.08-.841-4.822-1.404-8.853-1.25-8.957a332.27 332.27 0 013.948-2.394l3.668-2.205-3.059-9.218c-1.683-5.071-3.217-9.402-3.409-9.625-.192-.224-2.158.409-4.369 1.406-2.211.997-4.128 1.63-4.26 1.406-.132-.223-.724-1.306-1.316-2.406-.592-1.1-2.343-4.349-3.892-7.219l-2.816-5.219 2.642-3.464c1.453-1.906 2.642-3.961 2.642-4.568C196 80.507 185.876 68 184.643 68c-.548 0-2.203 1.444-3.676 3.209-2.604 3.119-2.747 3.162-5.073 1.53-1.317-.923-4.182-3.239-6.367-5.146l-3.974-3.468 1.365-3.813c.75-2.096 1.565-4.35 1.809-5.008.26-.698-2.927-2.891-7.658-5.269l-8.103-4.075-.975 2.564c-.536 1.41-1.252 3.669-1.591 5.02-.729 2.902-.146 2.859-8.804.644l-6.904-1.767-.096-5.46-.096-5.461-8.046-.287c-4.426-.158-8.363.029-8.75.417M114.5 70.477c-18.172 3.99-32.282 13.913-43.383 30.51C60.85 116.335 55 136.136 55 155.535V165h140.909l.704-3.75c1.037-5.527-1.253-24.784-4.126-34.7-11.265-38.873-45.201-63.273-77.987-56.073m-19.845 52.769c-7.973 15.535-14.415 28.328-14.314 28.428.1.1 4.389-.91 9.531-2.246 13.358-3.469 23.235-3.156 33.378 1.059 1.632.678 1.745-.544 1.671-18.13-.043-10.371-.333-18.182-.643-17.357-1.101 2.932-4.445 7.015-5.307 6.482-.482-.298-1.554.71-2.383 2.238-.83 1.529-1.526 2.304-1.548 1.721-.022-.582.621-1.932 1.428-3 .808-1.067 1.483-2.942 1.5-4.165.018-1.223 1.4-5.668 3.072-9.877 1.672-4.209 2.909-7.734 2.75-7.834-.983-.614-13.412-5.57-13.964-5.568-.37.002-7.197 12.714-15.171 28.249m40.788-25.83c-4.59 2.088-5.259 2.829-7.25 8.031-1.994 5.21-2.193 7.552-2.193 25.759 0 22.489-.894 20.561 8 17.252 5.892-2.191 20.822-1.471 30 1.449 7.596 2.416 8.589 2.531 7.263.843-.54-.687-7.178-13.512-14.751-28.5-7.573-14.988-14.274-27.224-14.89-27.192-.617.031-3.398 1.092-6.179 2.358m-17.025 30.664c-.554 1.954-1.923 3.843-3.194 4.407-1.223.543-2.224 1.385-2.224 1.872 0 .487 1.013.222 2.25-.589 2.504-1.64 5.099-6.224 4.515-7.975-.208-.624-.814.404-1.347 2.285m-27.672 48.986c-2.12 2.708-2.545 2.881-3.693 1.497-1.843-2.22-4.731-1.942-9.628.928-5.057 2.964-8.69 8.357-8.243 12.238.256 2.23 1.347 3.273 5.588 5.341 6.75 3.292 7.624 4.226 6.847 7.32-.753 3-7.996 7.61-11.955 7.61-2.244 0-2.662-.436-2.662-2.777 0-1.528.721-3.807 1.602-5.065 2.593-3.702.841-3.605-1.993.11-3.171 4.157-4.333 9.155-2.611 11.23 1.798 2.166 8.36 1.864 13.292-.611 11.944-5.994 13.478-13.222 3.832-18.066-7.685-3.859-8.295-4.585-6.606-7.852 1.804-3.488 8.35-8.969 10.712-8.969 2.16 0 2.16-.015.143 7.176-1.314 4.681-1.387 6.1-.378 7.316 1.746 2.103 3.007 1.88 3.007-.532 0-2.426 3.283-9.199 6.614-13.643 2.88-3.842 2.891-3.976.456-5.279-1.597-.855-2.341-.506-4.324 2.028m31.162 2.859c-1.952 1.608-5.407 5.334-7.679 8.278-2.619 3.395-5.905 6.239-8.977 7.771-3.015 1.504-5.754 3.855-7.25 6.221-3.904 6.179-5.225 4.903-2.354-2.274 1.366-3.414 1.417-4.263.298-4.954-1.944-1.202-2.567-.528-4.352 4.712-2.062 6.052-2.017 8.945.154 9.778 1.234.473 2.695-.363 4.97-2.846 1.92-2.096 3.487-3.088 3.878-2.455.396.639 1.631-.074 3.11-1.798 1.793-2.087 2.263-2.319 1.744-.858-1.582 4.452-1.693 12.054-.193 13.298 1.245 1.034 1.564.528 2.091-3.32.342-2.496 1.771-6.968 3.176-9.937 2.053-4.34 3.149-5.53 5.587-6.065 1.667-.367 3.276-.422 3.574-.124.298.298-.859 4.414-2.571 9.147-1.713 4.733-3.114 8.759-3.114 8.946 0 .188.732.622 1.627.965 1.906.732 4.373-1.024 4.373-3.111 0-1.15 4.688-14.293 10.511-29.467.646-1.683-1.866-4.832-3.855-4.832-.66 0-2.797 1.316-4.748 2.925m12.626 3.038c-2.182 2.41-10.757 24.866-9.978 26.127.309.501 1.048.91 1.643.91.594 0 1.614.73 2.267 1.623 1.845 2.523 5.129.842 8.671-4.44 2.991-4.459 5.575-7.183 6.814-7.183.312 0 1.111.87 1.775 1.933 1.045 1.673.73 2.411-2.337 5.478-4.467 4.467-4.217 6.976.736 7.391 3.007.252 4.048-.219 6.242-2.826 2.859-3.398 3.227-4.982 1.549-6.66-.779-.779-.427-1.547 1.25-2.728 2.324-1.635 2.335-1.625 2.644 2.433.243 3.2.839 4.318 2.773 5.199 2.053.935 2.941.769 5.336-1.002 2.813-2.08 2.883-2.083 3.383-.171.828 3.166 2.367 2.291 6.242-3.547 2.008-3.025 3.837-5.5 4.065-5.5.228 0 .134 1.757-.21 3.905-.533 3.337-.308 4.073 1.552 5.069 1.698.908 2.53.874 3.78-.155 2.043-1.681 7.269-8.849 7.269-9.969 0-1.981-1.832-.543-4.969 3.9-3.857 5.46-5.102 4.343-2.565-2.3.925-2.421 1.397-4.863 1.049-5.426-1.016-1.644-3.713-1.186-6.072 1.03l-2.186 2.053.488-2.553c.725-3.795-2.315-3.306-4.328.696-1.753 3.486-9.273 11.75-10.692 11.75-.472 0-.715-1.238-.541-2.75.184-1.601.855-2.64 1.607-2.486 2.304.47 4.911-1.616 6.682-5.348 1.675-3.53 1.667-3.721-.252-5.64-2.552-2.552-5.585-1.662-7.944 2.333-1.481 2.506-8.786 7.891-10.705 7.891-.757 0-.733-4.416.035-6.418.857-2.234 2.308-1.975 1.712.305-.737 2.82 1.404 3.512 2.756.891.646-1.253 2.066-3.257 3.155-4.454 2.052-2.255 1.691-4.324-.754-4.324-.773 0-1.847.826-2.387 1.835-.719 1.342-1.793 1.715-4.005 1.391-2.616-.384-3.309.041-5.152 3.165-2.194 3.718-3.932 4.685-3.932 2.188 0-1.577-5.32-3.117-7.058-2.043-1.247.771 1.373-4.679 4.149-8.629 1.379-1.963 1.541-2.875.666-3.75-1.581-1.581-2.165-1.469-4.223.806m-13.555 3.558L116.584 191l2.958-.01c2.519-.009 3.217-.627 4.706-4.169.961-2.287 1.608-4.298 1.437-4.469-.17-.17-2.288 1.705-4.706 4.169m-25.372 2.061c-1.022 2.662-.681 4.418.858 4.418 1.725 0 3.896-3.607 3.022-5.021-.934-1.511-3.204-1.159-3.88.603m68.671 7.668c-1.847 2.389-2.391 3.75-1.498 3.75.495 0 1.412-1.125 2.038-2.5 1.233-2.706 1.001-3.243-.54-1.25m-32.3 5.446c-1.638 2.582-2.967 5.17-2.953 5.75.04 1.669 7.975-7.194 7.975-8.907 0-2.845-2.022-1.573-5.022 3.157m14.32 6.53c-2.268 2.929-2.408 4.116-.241 2.052 1.282-1.222 2.084-2.471 1.78-2.774-.304-.304-.996.021-1.539.722" fill="#1976D2" fill-rule="evenodd"/><path fill-opacity=".973" d="M135.564 77.707c-.542 1.425-.428 1.54.56.56.684-.679.991-1.486.683-1.793-.308-.308-.867.247-1.243 1.233M138 95c-.825.533-1.05.969-.5.969s1.675-.436 2.5-.969c.825-.533 1.05-.969.5-.969s-1.675.436-2.5.969m-57 58.059c0 .582.45.781 1 .441s1-.816 1-1.059-.45-.441-1-.441-1 .477-1 1.059m47.507 3.93c-.35.566.051.734.941.393 1.732-.665 2.049-1.382.611-1.382-.518 0-1.216.445-1.552.989M90.818 177.5c-1.207 2.648-2.302 3.144-3.318 1.5-1.102-1.783-7.117-1.059-10.578 1.274C72.759 183.079 69 188.496 69 191.69c0 1.975 1.112 2.893 6.351 5.243 7.262 3.258 8.596 5.314 5.851 9.018-2.373 3.2-9.089 7.139-11.6 6.803-3.348-.448-4.334-3.386-2.321-6.909.98-1.714 1.594-3.304 1.364-3.533-.724-.725-4.614 6.285-5.249 9.46-.496 2.48-.194 3.266 1.635 4.244C71.414 219.433 87 210.963 87 204.078c0-3.289-1.723-4.96-8.75-8.481-2.888-1.447-5.25-3.297-5.25-4.111 0-2.005 6.677-9.268 10.193-11.086 2.559-1.323 2.906-1.305 3.478.184.349.91-.08 3.89-.954 6.621-.873 2.732-1.344 5.603-1.046 6.381.881 2.295 3.329 1.634 3.329-.899 0-1.272 1.821-5.332 4.046-9.021 2.225-3.69 3.774-7.149 3.441-7.687-1.109-1.794-3.516-1.009-4.669 1.521m26.087 8.401c-4.03 4.406-9.482 9.184-12.114 10.616-2.632 1.433-5.295 3.59-5.917 4.794-1.712 3.314-4.04 5.704-4.986 5.12-.465-.288.035-2.838 1.11-5.667 2.058-5.418 1.998-6.36-.351-5.459-1.739.667-5.06 10.177-4.271 12.232.901 2.349 4.3 1.69 6.645-1.287 1.192-1.512 2.77-2.756 3.506-2.763.736-.007 2.494-1.098 3.906-2.424 2.982-2.802 3.093-2.566 1.067 2.283-1.901 4.548-1.912 8.727-.032 11.213 1.371 1.812 1.471 1.675 1.501-2.059.038-4.698 5.024-15.9 7.499-16.849 1.658-.637 6.532-.919 6.532-.378 0 .15-1.35 3.779-3 8.064-3.486 9.051-3.664 10.663-1.183 10.663 1.34 0 2.287-1.513 3.6-5.75.981-3.162 3.571-10.361 5.757-15.996 2.186-5.635 3.825-11.035 3.642-12-.197-1.036-1.408-1.879-2.958-2.059-2.171-.253-3.89 1.078-9.953 7.706m3.711.102c-4.26 4.715-4.503 5.997-1.136 5.997 1.882 0 2.966-.954 4.5-3.96 3.675-7.205 2.143-8.133-3.364-2.037m11.89 1.247c-3.703 8.159-8.377 21.545-7.744 22.179 1.401 1.401 3.13.32 4.144-2.59 1.279-3.67 5.759-9.839 7.145-9.839 2.238 0 .647 4.372-3.051 8.384-4.079 4.425-5.15 7.616-2.556 7.616.793 0 2.931-1.848 4.75-4.107a445.43 445.43 0 015.913-7.182l2.608-3.076 1.758 2.684c1.747 2.666 1.735 2.708-1.92 6.754-2.959 3.276-3.447 4.35-2.493 5.499 1.709 2.059 5.252 1.757 8.398-.717 2.267-1.784 2.656-2.75 2.308-5.731-.319-2.738.072-3.995 1.658-5.321 3.011-2.519 3.518-2.222 2.884 1.689-1.025 6.316 3.228 8.399 8.903 4.358l3.019-2.15-.682 2.15c-.53 1.669-.276 2.139 1.135 2.102 1.083-.029 3.211-2.249 5.27-5.5 3.767-5.949 5.483-7.007 4.381-2.702-1.37 5.356-1.007 6.73 1.865 7.062 2.189.252 3.276-.485 5.75-3.901 1.678-2.316 3.051-4.886 3.051-5.711 0-.825-1.32.323-2.934 2.55-5.347 7.381-7.135 7.037-4.054-.781 1.664-4.22 1.823-5.457.787-6.115-1.993-1.264-2.308-1.119-6.29 2.896l-3.719 3.75 1.646-3.279c1.601-3.191 1.411-5.221-.49-5.221-.515 0-1.885 2.02-3.045 4.488-2.017 4.289-7.898 10.512-9.936 10.512-.531 0-.965-1.35-.965-3 0-2.509.397-3 2.427-3 3.127 0 6.767-4.541 6.371-7.945-.465-3.988-4.993-4.063-7.9-.131-2.919 3.948-9.651 8.385-11.593 7.64-1.841-.707-1.002-5.27 1.392-7.564 1.404-1.345 1.51-1.268 1.028.749-.296 1.237-.184 2.467.247 2.734.841.519 6.028-6.761 6.028-8.462 0-1.625-1.537-1.19-3.513.993-1.226 1.355-2.488 1.803-3.856 1.369-1.555-.494-2.8.268-5.291 3.234-3.11 3.705-3.32 3.793-4.657 1.965-.865-1.183-2.601-1.915-4.541-1.915-1.728 0-3.142-.168-3.142-.374 0-1.011 4.101-8.238 4.986-8.784 1.793-1.108 1.081-3.509-1.041-3.509-1.51 0-2.688 1.393-4.439 5.25m-36.471 1.684c-1.408 2.631-1.3 4.066.304 4.066 1.476 0 3.884-4.443 2.927-5.4-1.083-1.084-2.179-.631-3.231 1.334m67.606 7.49c-.972 1.484-1.592 3.224-1.377 3.867.214.642 1.184-.046 2.157-1.529.972-1.484 1.592-3.224 1.377-3.867-.214-.642-1.184.046-2.157 1.529m-17.986 12.405c-2.226 2.459-2.306 4.956-.1 3.126 2.023-1.68 3.765-4.955 2.635-4.955-.484 0-1.625.823-2.535 1.829" fill="#1976D2" fill-rule="evenodd"/></svg>